# xmcd
#
# Track frame offsets:
#	150
#	16646
#	40793
#	62189
#	81150
#	103174
#	125618
#	143315
#	165079
#	189137
#	211101
#	230494
#	246261
#	267497
#	283216
#
# Disc length: 3947 seconds
#
# Revision: 1
# Processed by: cddbd v1.5.1PL2 Copyright (c) Steve Scherf et al.
# Submitted via: MusicWizard 7.2.0
#
DISCID=c40f690f
DTITLE=Keith Urban - Days Go By
DYEAR=2005
DGENRE=Country
TTITLE0=Days Go By (Jeremy Wheatley Mix)
TTITLE1=Somebody Like You
TTITLE2=Raining On Sunday
TTITLE3=You're My Better Half
TTITLE4=You'll Think Of Me
TTITLE5=You Won
TTITLE6=Making Memories Of Us
TTITLE7=You (Or Somebody Like You)
TTITLE8=Nobody Drinks Alone
TTITLE9=She's Gotta Be
TTITLE10=Tonight I Wanna Cry
TTITLE11=You're Not Alone Tonight
TTITLE12=Better Life
TTITLE13=Live To Love Another Day
TTITLE14=These Are The Days
EXTD=
EXTT0=
EXTT1=
EXTT2=
EXTT3=
EXTT4=
EXTT5=
EXTT6=
EXTT7=
EXTT8=
EXTT9=
EXTT10=
EXTT11=
EXTT12=
EXTT13=
EXTT14=
PLAYORDER=
